<?xml version="1.0" encoding="UTF-8" standalone="no"?>
<!DOCTYPE svg PUBLIC "-//W3C//DTD SVG 1.1//EN"
 "http://www.w3.org/Graphics/SVG/1.1/DTD/svg11.dtd">
<!-- Generated by graphviz version 2.26.0 (20091210.2329)
 -->
<!-- Title: G Pages: 1 -->
<svg width="454pt" height="315pt"
 viewBox="0.00 0.00 454.00 315.00" xmlns="http://www.w3.org/2000/svg" xmlns:xlink="http://www.w3.org/1999/xlink">
<g id="graph1" class="graph" transform="scale(1 1) rotate(0) translate(4 311)">
<title>G</title>
<polygon fill="white" stroke="white" points="-4,5 -4,-311 451,-311 451,5 -4,5"/>
<g id="graph2" class="cluster"><title>cluster_Global</title>
<polyline fill="none" stroke="gray" points="20,-8 426,-8 "/>
<path fill="none" stroke="gray" d="M426,-8C432,-8 438,-14 438,-20"/>
<polyline fill="none" stroke="gray" points="438,-20 438,-287 "/>
<path fill="none" stroke="gray" d="M438,-287C438,-293 432,-299 426,-299"/>
<polyline fill="none" stroke="gray" points="426,-299 20,-299 "/>
<path fill="none" stroke="gray" d="M20,-299C14,-299 8,-293 8,-287"/>
<polyline fill="none" stroke="gray" points="8,-287 8,-20 "/>
<path fill="none" stroke="gray" d="M8,-20C8,-14 14,-8 20,-8"/>
<text text-anchor="middle" x="223" y="-285.1" font-family="Times Roman,serif" font-size="11.00" fill="gray">Global</text>
</g>
<!-- \\Lucky -->
<g id="node4" class="node"><title>\\Lucky</title>
<polygon fill="none" stroke="black" points="408,-268 354,-268 354,-232 408,-232 408,-268"/>
<text text-anchor="middle" x="381" y="-247.1" font-family="Courier,monospace" font-size="11.00">Lucky</text>
</g>
<!-- \\Module -->
<g id="node6" class="node"><title>\\Module</title>
<polygon fill="none" stroke="black" points="259,-214 175,-214 175,-178 259,-178 259,-214"/>
<text text-anchor="start" x="183" y="-201.433" font-family="Courier,monospace" font-size="11.00">«abstract»</text>
<text text-anchor="start" x="196.5" y="-188.233" font-family="Courier,monospace" font-size="11.00">Module</text>
</g>
<!-- \\Lucky&#45;&gt;\\Module -->
<g id="edge5" class="edge"><title>\\Lucky&#45;&gt;\\Module</title>
<path fill="none" stroke="black" d="M353.919,-241.083C330.969,-233.526 297.397,-222.472 269.241,-213.201"/>
<polygon fill="none" stroke="black" points="270.127,-209.808 259.534,-210.005 267.938,-216.457 270.127,-209.808"/>
</g>
<!-- \\LuckyError -->
<g id="node5" class="node"><title>\\LuckyError</title>
<polygon fill="none" stroke="black" points="423,-160 339,-160 339,-124 423,-124 423,-160"/>
<text text-anchor="middle" x="381" y="-139.1" font-family="Courier,monospace" font-size="11.00">LuckyError</text>
</g>
<!-- \\APIError -->
<g id="node10" class="node"><title>\\APIError</title>
<polygon fill="none" stroke="black" points="259,-160 175,-160 175,-124 259,-124 259,-160"/>
<text text-anchor="start" x="183" y="-147.433" font-family="Courier,monospace" font-size="11.00">«abstract»</text>
<text text-anchor="start" x="189.5" y="-134.233" font-family="Courier,monospace" font-size="11.00">APIError</text>
</g>
<!-- \\LuckyError&#45;&gt;\\APIError -->
<g id="edge7" class="edge"><title>\\LuckyError&#45;&gt;\\APIError</title>
<path fill="none" stroke="black" d="M338.766,-142C317.697,-142 292.006,-142 269.663,-142"/>
<polygon fill="none" stroke="black" points="269.661,-138.5 259.661,-142 269.661,-145.5 269.661,-138.5"/>
</g>
<!-- \\ModuleList -->
<g id="node7" class="node"><title>\\ModuleList</title>
<polygon fill="none" stroke="black" points="259,-268 175,-268 175,-232 259,-232 259,-268"/>
<text text-anchor="start" x="183" y="-255.433" font-family="Courier,monospace" font-size="11.00">«abstract»</text>
<text text-anchor="start" x="183" y="-242.233" font-family="Courier,monospace" font-size="11.00">ModuleList</text>
</g>
<!-- \\BasicEnum -->
<g id="node11" class="node"><title>\\BasicEnum</title>
<polygon fill="none" stroke="black" points="101,-214 17,-214 17,-178 101,-178 101,-214"/>
<text text-anchor="start" x="25" y="-201.433" font-family="Courier,monospace" font-size="11.00">«abstract»</text>
<text text-anchor="start" x="28.5" y="-188.233" font-family="Courier,monospace" font-size="11.00">BasicEnum</text>
</g>
<!-- \\ModuleList&#45;&gt;\\BasicEnum -->
<g id="edge9" class="edge"><title>\\ModuleList&#45;&gt;\\BasicEnum</title>
<path fill="none" stroke="black" d="M174.243,-235.387C154.756,-228.727 131.512,-220.782 111.02,-213.779"/>
<polygon fill="none" stroke="black" points="112.112,-210.453 101.517,-210.531 109.848,-217.077 112.112,-210.453"/>
</g>
<!-- \\General -->
<g id="node8" class="node"><title>\\General</title>
<polygon fill="none" stroke="black" points="413,-214 349,-214 349,-178 413,-178 413,-214"/>
<text text-anchor="middle" x="381" y="-193.1" font-family="Courier,monospace" font-size="11.00">General</text>
</g>
<!-- \\General&#45;&gt;\\Module -->
<g id="edge11" class="edge"><title>\\General&#45;&gt;\\Module</title>
<path fill="none" stroke="black" d="M348.99,-196C326.524,-196 295.962,-196 269.905,-196"/>
<polygon fill="none" stroke="black" points="269.795,-192.5 259.795,-196 269.795,-199.5 269.795,-192.5"/>
</g>
<!-- \\GeneralError -->
<g id="node9" class="node"><title>\\GeneralError</title>
<polygon fill="none" stroke="black" points="430,-106 332,-106 332,-70 430,-70 430,-106"/>
<text text-anchor="middle" x="381" y="-85.1" font-family="Courier,monospace" font-size="11.00">GeneralError</text>
</g>
<!-- \\GeneralError&#45;&gt;\\APIError -->
<g id="edge13" class="edge"><title>\\GeneralError&#45;&gt;\\APIError</title>
<path fill="none" stroke="black" d="M331.795,-104.202C312.011,-110.716 289.177,-118.234 269.111,-124.842"/>
<polygon fill="none" stroke="black" points="267.911,-121.552 259.507,-128.004 270.1,-128.201 267.911,-121.552"/>
</g>
<!-- \\APIError&#45;&gt;\\BasicEnum -->
<g id="edge15" class="edge"><title>\\APIError&#45;&gt;\\BasicEnum</title>
<path fill="none" stroke="black" d="M174.243,-156.613C154.756,-163.273 131.512,-171.218 111.02,-178.221"/>
<polygon fill="none" stroke="black" points="109.848,-174.923 101.517,-181.469 112.112,-181.547 109.848,-174.923"/>
</g>
<!-- \\XML -->
<g id="node12" class="node"><title>\\XML</title>
<polygon fill="none" stroke="black" points="423,-52 339,-52 339,-16 423,-16 423,-52"/>
<text text-anchor="start" x="347" y="-39.4333" font-family="Courier,monospace" font-size="11.00">«abstract»</text>
<text text-anchor="start" x="370.5" y="-26.2333" font-family="Courier,monospace" font-size="11.00">XML</text>
</g>
</g>
</svg>
