<?xml version="1.0" encoding="UTF-8" standalone="no"?>
<!DOCTYPE svg PUBLIC "-//W3C//DTD SVG 1.1//EN"
 "http://www.w3.org/Graphics/SVG/1.1/DTD/svg11.dtd">
<!-- Generated by graphviz version 2.26.0 (20091210.2329)
 -->
<!-- Title: G Pages: 1 -->
<svg width="284pt" height="99pt"
 viewBox="0.00 0.00 284.00 99.00" xmlns="http://www.w3.org/2000/svg" xmlns:xlink="http://www.w3.org/1999/xlink">
<g id="graph1" class="graph" transform="scale(1 1) rotate(0) translate(4 95)">
<title>G</title>
<polygon fill="white" stroke="white" points="-4,5 -4,-95 281,-95 281,5 -4,5"/>
<g id="graph2" class="cluster"><title>cluster_Global</title>
<polyline fill="none" stroke="gray" points="20,-8 256,-8 "/>
<path fill="none" stroke="gray" d="M256,-8C262,-8 268,-14 268,-20"/>
<polyline fill="none" stroke="gray" points="268,-20 268,-71 "/>
<path fill="none" stroke="gray" d="M268,-71C268,-77 262,-83 256,-83"/>
<polyline fill="none" stroke="gray" points="256,-83 20,-83 "/>
<path fill="none" stroke="gray" d="M20,-83C14,-83 8,-77 8,-71"/>
<polyline fill="none" stroke="gray" points="8,-71 8,-20 "/>
<path fill="none" stroke="gray" d="M8,-20C8,-14 14,-8 20,-8"/>
<text text-anchor="middle" x="138" y="-69.1" font-family="Times Roman,serif" font-size="11.00" fill="gray">Global</text>
</g>
<!-- \\APIError -->
<g id="node4" class="node"><title>\\APIError</title>
<polygon fill="none" stroke="black" points="259,-52 175,-52 175,-16 259,-16 259,-52"/>
<text text-anchor="start" x="183" y="-39.4333" font-family="Courier,monospace" font-size="11.00">«abstract»</text>
<text text-anchor="start" x="189.5" y="-26.2333" font-family="Courier,monospace" font-size="11.00">APIError</text>
</g>
<!-- \\BasicEnum -->
<g id="node5" class="node"><title>\\BasicEnum</title>
<polygon fill="none" stroke="black" points="101,-52 17,-52 17,-16 101,-16 101,-52"/>
<text text-anchor="start" x="25" y="-39.4333" font-family="Courier,monospace" font-size="11.00">«abstract»</text>
<text text-anchor="start" x="28.5" y="-26.2333" font-family="Courier,monospace" font-size="11.00">BasicEnum</text>
</g>
<!-- \\APIError&#45;&gt;\\BasicEnum -->
<g id="edge5" class="edge"><title>\\APIError&#45;&gt;\\BasicEnum</title>
<path fill="none" stroke="black" d="M174.243,-34C154.932,-34 131.932,-34 111.577,-34"/>
<polygon fill="none" stroke="black" points="111.517,-30.5001 101.517,-34 111.517,-37.5001 111.517,-30.5001"/>
</g>
</g>
</svg>
